<mxfile host="app.diagrams.net" modified="2020-04-16T09:00:19.104Z" agent="5.0 (Windows NT 10.0; Win64; x64) AppleWebKit/537.36 (KHTML, like Gecko) Chrome/80.0.3987.163 Safari/537.36" etag="LLhyB7Dxn3xCBwMKE3EE" version="12.9.13" type="github">
  <diagram id="T0DUqwUE4K31bVdRsGWD" name="Page-1">
    <mxGraphModel dx="1422" dy="762" grid="1" gridSize="10" guides="1" tooltips="1" connect="1" arrows="1" fold="0" page="1" pageScale="1" pageWidth="850" pageHeight="1100" math="0" shadow="0">
      <root>
        <mxCell id="0" />
        <mxCell id="1" parent="0" />
        <mxCell id="DUuvLG7h22uEJNUV1eJU-1" value="&lt;p style=&quot;margin-top: 0pt ; margin-bottom: 0pt&quot;&gt;&lt;span style=&quot;margin-top: 0pt ; margin-bottom: 0pt&quot;&gt;&lt;b&gt;Life insurance&lt;/b&gt;&lt;/span&gt;&lt;/p&gt;&lt;p style=&quot;margin-top: 0pt ; margin-bottom: 0pt&quot;&gt;&lt;br&gt;&lt;/p&gt;&lt;p style=&quot;margin-top: 0pt ; margin-bottom: 0pt&quot;&gt;&lt;span style=&quot;margin-top: 0pt ; margin-bottom: 0pt&quot;&gt;Prepare for the unexpected; you never know what you&#39;re going to get in life.&lt;/span&gt;&lt;/p&gt;&lt;p style=&quot;margin-top: 0pt ; margin-bottom: 0pt&quot;&gt;&lt;br&gt;&lt;/p&gt;&lt;p style=&quot;margin-top: 0pt ; margin-bottom: 0pt&quot;&gt;&lt;span style=&quot;margin-top: 0pt ; margin-bottom: 0pt&quot;&gt;Safelife has been offering insurance since 1918, serving thousands of happy customers every year. Our primary focus is always on providing personalized services so that our customers are satisfied in all situations.&lt;/span&gt;&lt;/p&gt;&lt;p style=&quot;margin-top: 0pt ; margin-bottom: 0pt&quot;&gt;&lt;br&gt;&lt;/p&gt;&lt;p style=&quot;margin-top: 0pt ; margin-bottom: 0pt&quot;&gt;&lt;span style=&quot;margin-top: 0pt ; margin-bottom: 0pt&quot;&gt;What other advantages can you expect?&lt;/span&gt;&lt;/p&gt;&lt;ul style=&quot;margin-top: 0pt ; margin-bottom: 0pt&quot;&gt;&lt;li style=&quot;margin-top: 0pt ; margin-bottom: 0pt ; list-style-type: disc&quot;&gt;&lt;span style=&quot;margin-top: 0pt ; margin-bottom: 0pt&quot;&gt;In one contract, you can sign up for five different people.&lt;/span&gt;&lt;/li&gt;&lt;li style=&quot;margin-top: 0pt ; margin-bottom: 0pt ; list-style-type: disc&quot;&gt;&lt;span style=&quot;margin-top: 0pt ; margin-bottom: 0pt&quot;&gt;Claim all events online.&lt;/span&gt;&lt;/li&gt;&lt;/ul&gt;" style="rounded=0;whiteSpace=wrap;html=1;align=left;spacingLeft=0;spacing=10;fillColor=none;" vertex="1" parent="1">
          <mxGeometry x="10" y="10" width="280" height="230" as="geometry" />
        </mxCell>
        <mxCell id="DUuvLG7h22uEJNUV1eJU-2" value="&lt;p style=&quot;margin-top: 0pt ; margin-bottom: 0pt&quot;&gt;&lt;b&gt;Travel insurance&lt;/b&gt;&lt;/p&gt;&lt;p style=&quot;margin-top: 0pt ; margin-bottom: 0pt&quot;&gt;&lt;b&gt;&lt;br&gt;&lt;/b&gt;&lt;/p&gt;&lt;p style=&quot;margin-top: 0pt ; margin-bottom: 0pt&quot;&gt;Keep peace in your mind when you&#39;re on the road. Doing sports on your vacation is not a problem anymore.&lt;/p&gt;&lt;p style=&quot;margin-top: 0pt ; margin-bottom: 0pt&quot;&gt;&lt;br&gt;&lt;/p&gt;&lt;p style=&quot;margin-top: 0pt ; margin-bottom: 0pt&quot;&gt;Safelife has been offering insurance since 1918, serving thousands of happy customers every year. Our primary focus is always on providing personalized services so that our customers are satisfied in all situations.&lt;/p&gt;&lt;p style=&quot;margin-top: 0pt ; margin-bottom: 0pt&quot;&gt;&lt;br&gt;&lt;/p&gt;&lt;p style=&quot;margin-top: 0pt ; margin-bottom: 0pt&quot;&gt;And why not to insure yourself for other activities as well? You can add baggage insurance in one contract!&lt;/p&gt;" style="rounded=0;whiteSpace=wrap;html=1;align=left;spacingLeft=0;spacing=10;fillColor=none;" vertex="1" parent="1">
          <mxGeometry x="350" y="10" width="280" height="230" as="geometry" />
        </mxCell>
        <mxCell id="DUuvLG7h22uEJNUV1eJU-4" value="" style="rounded=1;whiteSpace=wrap;html=1;shadow=0;strokeColor=#FF3333;strokeWidth=3;fillColor=none;" vertex="1" parent="1">
          <mxGeometry x="13" y="82" width="270" height="85" as="geometry" />
        </mxCell>
        <mxCell id="DUuvLG7h22uEJNUV1eJU-5" value="" style="rounded=1;whiteSpace=wrap;html=1;shadow=0;strokeColor=#FF3333;strokeWidth=3;fillColor=none;" vertex="1" parent="1">
          <mxGeometry x="354" y="96" width="270" height="85" as="geometry" />
        </mxCell>
        <mxCell id="DUuvLG7h22uEJNUV1eJU-7" value="&lt;p style=&quot;margin-top: 0pt ; margin-bottom: 0pt&quot;&gt;&lt;span style=&quot;margin-top: 0pt ; margin-bottom: 0pt&quot;&gt;&lt;b&gt;Life insurance&lt;/b&gt;&lt;/span&gt;&lt;/p&gt;&lt;p style=&quot;margin-top: 0pt ; margin-bottom: 0pt&quot;&gt;&lt;br&gt;&lt;/p&gt;&lt;p style=&quot;margin-top: 0pt ; margin-bottom: 0pt&quot;&gt;&lt;span style=&quot;margin-top: 0pt ; margin-bottom: 0pt&quot;&gt;Prepare for the unexpected; you never know what you&#39;re going to get in life.&lt;/span&gt;&lt;/p&gt;&lt;p style=&quot;margin-top: 0pt ; margin-bottom: 0pt&quot;&gt;&lt;br&gt;&lt;/p&gt;&lt;p style=&quot;margin-top: 0pt ; margin-bottom: 0pt&quot;&gt;&lt;br&gt;&lt;/p&gt;&lt;p style=&quot;margin-top: 0pt ; margin-bottom: 0pt&quot;&gt;&lt;br&gt;&lt;/p&gt;&lt;p style=&quot;margin-top: 0pt ; margin-bottom: 0pt&quot;&gt;&lt;br&gt;&lt;/p&gt;&lt;p style=&quot;margin-top: 0pt ; margin-bottom: 0pt&quot;&gt;&lt;span style=&quot;margin-top: 0pt ; margin-bottom: 0pt&quot;&gt;What other advantages can you expect?&lt;/span&gt;&lt;/p&gt;&lt;ul style=&quot;margin-top: 0pt ; margin-bottom: 0pt&quot;&gt;&lt;li style=&quot;margin-top: 0pt ; margin-bottom: 0pt ; list-style-type: disc&quot;&gt;&lt;span style=&quot;margin-top: 0pt ; margin-bottom: 0pt&quot;&gt;In one contract, you can sign up for five different people.&lt;/span&gt;&lt;/li&gt;&lt;li style=&quot;margin-top: 0pt ; margin-bottom: 0pt ; list-style-type: disc&quot;&gt;&lt;span style=&quot;margin-top: 0pt ; margin-bottom: 0pt&quot;&gt;Claim all events online.&lt;/span&gt;&lt;/li&gt;&lt;/ul&gt;" style="rounded=0;whiteSpace=wrap;html=1;align=left;spacingLeft=0;spacing=10;fillColor=none;" vertex="1" parent="1">
          <mxGeometry x="10" y="470" width="280" height="190" as="geometry" />
        </mxCell>
        <mxCell id="DUuvLG7h22uEJNUV1eJU-8" value="&lt;span style=&quot;text-align: left&quot;&gt;Safelife history&lt;/span&gt;" style="rounded=0;whiteSpace=wrap;html=1;shadow=0;strokeColor=#000000;strokeWidth=2;fillColor=none;" vertex="1" parent="1">
          <mxGeometry x="20" y="552.5" width="120" height="25" as="geometry" />
        </mxCell>
        <mxCell id="DUuvLG7h22uEJNUV1eJU-9" value="&lt;p style=&quot;margin-top: 0pt ; margin-bottom: 0pt&quot;&gt;&lt;b&gt;Travel insurance&lt;/b&gt;&lt;/p&gt;&lt;p style=&quot;margin-top: 0pt ; margin-bottom: 0pt&quot;&gt;&lt;b&gt;&lt;br&gt;&lt;/b&gt;&lt;/p&gt;&lt;p style=&quot;margin-top: 0pt ; margin-bottom: 0pt&quot;&gt;Keep peace in your mind when you&#39;re on the road. Doing sports on your vacation is not a problem anymore.&lt;/p&gt;&lt;p style=&quot;margin-top: 0pt ; margin-bottom: 0pt&quot;&gt;&lt;br&gt;&lt;/p&gt;&lt;p style=&quot;margin-top: 0pt ; margin-bottom: 0pt&quot;&gt;&lt;br&gt;&lt;/p&gt;&lt;p style=&quot;margin-top: 0pt ; margin-bottom: 0pt&quot;&gt;&lt;br&gt;&lt;/p&gt;&lt;p style=&quot;margin-top: 0pt ; margin-bottom: 0pt&quot;&gt;&lt;br&gt;&lt;/p&gt;&lt;p style=&quot;margin-top: 0pt ; margin-bottom: 0pt&quot;&gt;And why not to insure yourself for other activities as well? You can add baggage insurance in one contract!&lt;/p&gt;" style="rounded=0;whiteSpace=wrap;html=1;align=left;spacingLeft=0;spacing=10;fillColor=none;" vertex="1" parent="1">
          <mxGeometry x="350" y="470" width="280" height="190" as="geometry" />
        </mxCell>
        <mxCell id="DUuvLG7h22uEJNUV1eJU-10" value="&lt;span style=&quot;text-align: left&quot;&gt;Safelife history&lt;/span&gt;" style="rounded=0;whiteSpace=wrap;html=1;shadow=0;strokeColor=#000000;strokeWidth=2;fillColor=none;" vertex="1" parent="1">
          <mxGeometry x="360" y="566" width="120" height="25" as="geometry" />
        </mxCell>
        <mxCell id="DUuvLG7h22uEJNUV1eJU-11" value="&lt;p style=&quot;margin-top: 0pt ; margin-bottom: 0pt&quot;&gt;&lt;span style=&quot;margin-top: 0pt ; margin-bottom: 0pt&quot;&gt;&lt;b&gt;Safelife history (chunk)&lt;/b&gt;&lt;/span&gt;&lt;/p&gt;&lt;p style=&quot;margin-top: 0pt ; margin-bottom: 0pt&quot;&gt;&lt;br&gt;&lt;/p&gt;&lt;p style=&quot;margin-top: 0pt ; margin-bottom: 0pt&quot;&gt;&lt;span style=&quot;margin-top: 0pt ; margin-bottom: 0pt&quot;&gt;Safelife has been offering insurance since 1918, serving thousands of happy customers every year. Our primary focus is always on providing personalized services so that our customers are satisfied in all situations.&lt;/span&gt;&lt;/p&gt;" style="rounded=0;whiteSpace=wrap;html=1;align=left;spacingLeft=0;spacing=10;fillColor=none;" vertex="1" parent="1">
          <mxGeometry x="180" y="330" width="280" height="120" as="geometry" />
        </mxCell>
        <mxCell id="DUuvLG7h22uEJNUV1eJU-14" value="" style="curved=1;endArrow=classic;html=1;entryX=1;entryY=0.5;entryDx=0;entryDy=0;strokeColor=#FF3333;strokeWidth=3;" edge="1" parent="1" target="DUuvLG7h22uEJNUV1eJU-8">
          <mxGeometry width="50" height="50" relative="1" as="geometry">
            <mxPoint x="320" y="450" as="sourcePoint" />
            <mxPoint x="600" y="320" as="targetPoint" />
            <Array as="points">
              <mxPoint x="310" y="530" />
              <mxPoint x="240" y="560" />
            </Array>
          </mxGeometry>
        </mxCell>
        <mxCell id="DUuvLG7h22uEJNUV1eJU-15" value="" style="curved=1;endArrow=classic;html=1;entryX=0;entryY=0.5;entryDx=0;entryDy=0;strokeColor=#FF3333;strokeWidth=3;exitX=0.5;exitY=1;exitDx=0;exitDy=0;" edge="1" parent="1" source="DUuvLG7h22uEJNUV1eJU-11" target="DUuvLG7h22uEJNUV1eJU-10">
          <mxGeometry width="50" height="50" relative="1" as="geometry">
            <mxPoint x="330" y="460" as="sourcePoint" />
            <mxPoint x="150" y="575" as="targetPoint" />
            <Array as="points">
              <mxPoint x="310" y="550" />
              <mxPoint x="340" y="579" />
            </Array>
          </mxGeometry>
        </mxCell>
        <mxCell id="DUuvLG7h22uEJNUV1eJU-16" value="" style="shape=flexArrow;endArrow=classic;html=1;strokeColor=#FF3333;strokeWidth=3;" edge="1" parent="1">
          <mxGeometry width="50" height="50" relative="1" as="geometry">
            <mxPoint x="320" y="240" as="sourcePoint" />
            <mxPoint x="320" y="320" as="targetPoint" />
          </mxGeometry>
        </mxCell>
      </root>
    </mxGraphModel>
  </diagram>
</mxfile>
